Coordinates
version=1
nRows=14
nColumns=40
inDegrees=yes

Units are S.I. units (second, meters, Newtons, ...)
Angles are in degrees.

endheader
time	pelvis_tilt	pelvis_list	pelvis_rotation	pelvis_tx	pelvis_ty	pelvis_tz	hip_flexion_r	hip_adduction_r	hip_rotation_r	knee_angle_r	knee_angle_r_beta	ankle_angle_r	subtalar_angle_r	mtp_angle_r	hip_flexion_l	hip_adduction_l	hip_rotation_l	knee_angle_l	knee_angle_l_beta	ankle_angle_l	subtalar_angle_l	mtp_angle_l	lumbar_extension	lumbar_bending	lumbar_rotation	arm_flex_r	arm_add_r	arm_rot_r	elbow_flex_r	pro_sup_r	wrist_flex_r	wrist_dev_r	arm_flex_l	arm_add_l	arm_rot_l	elbow_flex_l	pro_sup_l	wrist_flex_l	wrist_dev_l
      3.82000000	    -12.32257512	    -11.65641686	      5.68091866	      0.96391015	      0.89692456	      0.42771462	     39.10185343	      0.56453513	    -23.47802048	     15.18761741	     15.18761741	      2.55669473	     -3.73441079	     20.55704717	     21.94689315	    -15.78819572	     -8.20550580	     30.59923848	     30.59923848	     26.47349508	     10.29259903	     -7.38010809	     -5.66646877	     12.33891885	     -2.28894085	    -20.54775672	    -17.85532986	     -7.94404238	     30.43584738	     46.67384249	      0.00000000	      0.00000000	     26.46165557	    -17.92578747	     -5.00290464	     92.50983754	     48.19424117	      0.00000000	      0.00000000
      3.83157143	    -16.53401112	    -21.22840228	     10.49936641	      0.94827764	      0.87520633	      0.42664498	     45.21950209	      4.79520488	    -32.07280892	     13.13811295	     13.13811295	      1.65906240	     -6.91568430	     24.95335011	     37.70836015	    -22.86248462	      2.74903871	     40.08414314	     40.08414314	     28.60541219	     12.48867935	     -8.56549504	      1.28293680	     22.32094436	     -6.89841224	    -25.49296273	    -19.81846008	     -6.37051811	     37.36037644	     46.16575208	      0.00000000	      0.00000000	     28.25492955	    -16.87045381	     -3.94571755	     95.65749868	     48.26975658	      0.00000000	      0.00000000
      3.84314286	    -20.35526646	    -30.32845163	     14.48641726	      0.93106574	      0.85280104	      0.42632391	     52.19540239	      7.13775737	    -38.92590240	     11.91196844	     11.91196844	     -0.27408598	    -11.65133649	     26.66865127	     53.07123756	    -25.19760060	     15.50895715	     46.25278119	     46.25278119	     29.03446421	     13.04132925	     -9.55558488	      9.71742914	     30.89811459	    -12.57896035	    -31.25949998	    -21.92371051	     -6.40987455	     45.87454546	     45.77142392	      0.00000000	      0.00000000	     30.37718777	    -15.57387822	     -2.83137201	     98.71610837	     48.31817413	      0.00000000	      0.00000000
      3.85471429	    -23.90184167	    -36.88635987	     16.51689552	      0.91481420	      0.83325771	      0.42714322	     58.48663513	      7.94066193	    -39.77166593	     11.05068288	     11.05068288	     -3.31171924	    -19.07879743	     27.72389405	     64.54949047	    -24.06804176	     25.16302554	     50.17319843	     50.17319843	     29.11990368	     12.33157484	     -9.64416048	     17.77537772	     36.29051670	    -17.20280858	    -37.24620251	    -23.63905951	     -7.23411721	     54.50204159	     45.46486446	      0.00000000	      0.00000000	     32.83174391	    -14.14860683	     -1.45988022	    100.68789958	     48.33512068	      0.00000000	      0.00000000
      3.86628571	    -27.24819882	    -40.61567483	     16.70624821	      0.90204962	      0.81878436	      0.42807768	     62.89916605	      7.49865087	    -39.89735428	     10.81996613	     10.81996613	     -4.18175595	    -19.74524552	     28.41602162	     71.54798819	    -21.91563932	     30.87820051	     52.69849920	     52.69849920	     29.15328144	     10.54816434	     -9.31615532	     23.85528011	     38.93957004	    -20.28082411	    -41.58879419	    -24.82056248	     -8.62351925	     60.63352916	     45.29690873	      0.00000000	      0.00000000	     34.30448688	    -13.13771103	     -0.79093112	    102.95324113	     48.37222355	      0.00000000	      0.00000000
      3.87785714	    -29.44213385	    -42.59715222	     16.40365789	      0.89522922	      0.81030037	      0.42988667	     65.62299616	      7.10040286	    -39.92222075	     11.43659619	     11.43659619	     -4.58338540	    -19.82185235	     28.54924921	     75.20366255	    -20.70923923	     33.88787225	     54.14765116	     54.14765116	     29.09070949	      9.39560775	     -9.49259926	     27.53134843	     40.11913605	    -21.79859435	    -43.26912998	    -25.15102008	     -9.01708982	     61.41448553	     45.28093943	      0.00000000	      0.00000000	     35.10655680	    -12.15630274	     -0.36289220	    104.41726476	     48.38392897	      0.00000000	      0.00000000
      3.88942857	    -29.91905476	    -42.76657984	     16.11146637	      0.89600237	      0.80885290	      0.43239222	     66.37611811	      7.10731085	    -39.92534884	     12.91194294	     12.91194294	     -4.24755285	    -19.82977298	     28.44120154	     75.32651892	    -20.79357261	     34.85322886	     54.59573199	     54.59573199	     29.10141418	      8.17392291	     -9.51484724	     28.14233236	     40.32637312	    -21.73538841	    -44.05780073	    -24.88687458	     -9.35618225	     62.54659329	     45.25526965	      0.00000000	      0.00000000	     34.39022853	    -11.76399957	     -0.44765023	    106.15788834	     48.42518097	      0.00000000	      0.00000000
      3.90100000	    -28.22366462	    -41.27431489	     16.02758663	      0.90508431	      0.81493300	      0.43583983	     64.51480994	      8.11621605	    -39.91063618	     14.30284227	     14.30284227	     -3.60818099	    -19.78723923	     28.04000775	     71.93436675	    -22.71189546	     33.50728802	     54.07869558	     54.07869558	     29.07848777	      7.87554094	    -10.19278301	     25.28049205	     39.73825502	    -20.77239022	    -42.38120558	    -24.05232944	     -9.91920228	     61.99624838	     45.31948666	      0.00000000	      0.00000000	     31.60036666	    -12.47481956	     -1.94751349	    109.17215960	     48.57573712	      0.00000000	      0.00000000
      3.91257143	    -24.94259539	    -38.09327982	     15.81079374	      0.92074680	      0.82728301	      0.44001197	     60.41055460	      9.43273921	    -39.84392319	     15.96701488	     15.96701488	     -2.79160758	    -19.54932759	     26.36606194	     64.90725687	    -25.57949779	     29.75575534	     52.58221769	     52.58221769	     28.98647811	      7.71728434	    -10.88679625	     19.67420181	     37.82176000	    -18.46473967	    -37.83245630	    -22.76589714	     -8.84907511	     55.99589155	     45.52545006	      0.00000000	      0.00000000	     27.87015558	    -13.41237069	     -3.79192833	    111.49127210	     48.72589379	      0.00000000	      0.00000000
      3.92414286	    -20.82171315	    -32.75438291	     14.56154511	      0.94023017	      0.84438903	      0.44423566	     54.02396572	      9.96398651	    -39.26842402	     17.94698207	     17.94698207	     -0.53223201	    -15.48732175	     23.94889033	     53.71055701	    -27.82170798	     22.82820001	     50.28454814	     50.28454814	     28.96157016	      6.71240731	    -10.29398263	     12.00421167	     34.05241626	    -13.94526126	    -35.26713946	    -21.22386604	     -8.02548010	     54.68897530	     45.55213188	      0.00000000	      0.00000000	     24.21790117	    -14.25980736	     -4.94313813	    111.51141636	     48.77613774	      0.00000000	      0.00000000
      3.93571429	    -16.72336518	    -24.28359702	     10.99477572	      0.96132748	      0.86496503	      0.44918674	     45.90858696	      8.82590006	    -33.52275867	     19.38305599	     19.38305599	      0.23938751	    -10.30902753	     15.22485765	     37.89871802	    -26.68940145	     11.56027573	     46.35092080	     46.35092080	     28.04780982	      3.98421493	    -10.19400028	      3.12963263	     26.30611298	     -9.51323789	    -26.01057505	    -19.30772858	     -5.58298658	     39.10481781	     46.05228483	      0.00000000	      0.00000000	     18.76327946	    -15.45389830	     -8.41879469	    114.27571417	     49.01863847	      0.00000000	      0.00000000
      3.94728571	    -12.30043596	    -15.16549146	      6.33611835	      0.98063899	      0.88537238	      0.45516307	     38.10340087	      5.91612985	    -24.98373282	     20.86475449	     20.86475449	      0.84675082	     -7.48557409	      7.55544687	     21.79128185	    -21.11215662	      1.13994348	     40.75768428	     40.75768428	     25.48130818	     -0.61323123	     -9.66011239	     -4.37965203	     17.12627590	     -4.82570213	    -21.26149416	    -17.61077807	     -4.21253511	     32.71610815	     46.23210200	      0.00000000	      0.00000000	     14.57247418	    -15.96588041	    -10.47718178	    114.70065068	     49.13760410	      0.00000000	      0.00000000
      3.95885714	     -8.31035565	     -7.71259374	      1.89421395	      0.99584197	      0.90188336	      0.46132280	     32.04246795	      2.01060792	    -18.58874474	     22.04910401	     22.04910401	      1.86915361	     -3.94338398	      1.59202057	      9.68048131	    -13.64417651	     -4.95586298	     34.71643534	     34.71643534	     20.71916638	     -6.23664588	    -10.36715193	     -9.38997952	      9.00133942	     -1.30264758	    -18.30362076	    -16.20501429	     -4.04198995	     29.06794980	     46.37071224	      0.00000000	      0.00000000	     11.34042340	    -15.93185641	    -11.48820573	    114.32171603	     49.19355904	      0.00000000	      0.00000000
      3.97042857	     -5.52814742	     -2.95095004	     -1.41084847	      1.00605526	      0.91301219	      0.46688498	     28.18773248	     -1.20938800	    -14.99585425	     22.74106440	     22.74106440	      3.52535067	     -0.28717250	     -0.43974529	      2.94891725	     -7.88723192	     -7.58880250	     31.37197876	     31.37197876	     17.19883877	    -10.10485793	     -7.77973580	    -12.10314481	      3.54349570	      1.14419531	    -16.85429290	    -15.31807284	     -3.99175901	     28.40064625	     46.40119203	      0.00000000	      0.00000000	      8.93463023	    -15.47267699	    -11.64377251	    113.43489898	     49.17766237	      0.00000000	      0.00000000
